<?xml version="1.0" encoding="UTF-8" standalone="no"?>
<!-- Created with Inkscape (http://www.inkscape.org/) -->

<svg
   width="33.925877mm"
   height="32.809116mm"
   viewBox="0 0 33.925877 32.809116"
   version="1.1"
   id="svg1"
   inkscape:version="1.4.3 (0d15f75042, 2025-12-25)"
   sodipodi:docname="drawing.svg"
   xmlns:inkscape="http://www.inkscape.org/namespaces/inkscape"
   xmlns:sodipodi="http://sodipodi.sourceforge.net/DTD/sodipodi-0.dtd"
   xmlns="http://www.w3.org/2000/svg"
   xmlns:svg="http://www.w3.org/2000/svg">
  <sodipodi:namedview
     id="namedview1"
     pagecolor="#000000"
     bordercolor="#000000"
     borderopacity="0.25"
     inkscape:showpageshadow="2"
     inkscape:pageopacity="0.0"
     inkscape:pagecheckerboard="0"
     inkscape:deskcolor="#d1d1d1"
     inkscape:document-units="mm"
     inkscape:zoom="4.4161898"
     inkscape:cx="83.103312"
     inkscape:cy="46.420106"
     inkscape:window-width="1829"
     inkscape:window-height="1064"
     inkscape:window-x="0"
     inkscape:window-y="0"
     inkscape:window-maximized="1"
     inkscape:current-layer="layer1" />
  <defs
     id="defs1" />
  <g
     inkscape:label="Layer 1"
     inkscape:groupmode="layer"
     id="layer1"
     transform="translate(-92.154395,-106.70997)">
    <path
       d="m 124.929,118.97357 -2.50799,-1.48737 c -1.17419,-0.69875 -1.89996,-1.98696 -1.89996,-3.38063 v -2.97463 c 0,-0.60897 -0.2698,-1.18286 -0.72963,-1.56536 -1.36796,-1.13596 -2.90696,-2.05727 -4.5713,-2.71692 -0.55485,-0.2186 -1.17418,-0.17566 -1.68718,0.12882 l -2.51172,1.49121 c -1.17419,0.69877 -2.62201,0.69877 -3.79993,0 l -2.51183,-1.49121 c -0.513,-0.30448 -1.13618,-0.35133 -1.68719,-0.12882 -1.66818,0.65972 -3.203335,1.58096 -4.567555,2.71307 -0.45979,0.38256 -0.72958,0.9564 -0.72958,1.56537 v 2.97462 c 0,1.39356 -0.72199,2.68188 -1.89997,3.38064 l -2.50798,1.48726 c -0.513,0.3045 -0.86259,0.83156 -0.95379,1.43266 -0.14059,0.88616 -0.209,1.79187 -0.209,2.71308 0,0.92131 0.0684,1.82691 0.2052,2.70912 0.0912,0.60121 0.4408,1.13211 0.95379,1.43661 l 2.50798,1.48726 c 1.17419,0.69876 1.89997,1.98697 1.89997,3.38064 v 2.97463 c 0,0.60889 0.26979,1.18275 0.72958,1.56536 1.36422,1.132 2.903105,2.05331 4.567555,2.71307 0.55477,0.21861 1.17419,0.17565 1.68718,-0.12885 l 2.51173,-1.49121 c 1.17418,-0.69876 2.62189,-0.69876 3.79993,0 l 2.51172,1.49121 c 0.513,0.3045 1.13618,0.34746 1.68718,0.12885 1.66445,-0.65976 3.20334,-1.58107 4.56757,-2.71307 0.45983,-0.38261 0.72962,-0.95647 0.72962,-1.56536 v -2.97463 c 0,-1.39367 0.72578,-2.68188 1.89997,-3.38064 l 2.50787,-1.48726 c 0.513,-0.3045 0.86265,-0.83145 0.95383,-1.43661 0.13303,-0.88221 0.2052,-1.78781 0.2052,-2.70912 0,-0.92121 -0.0684,-1.82692 -0.2052,-2.70912 -0.0874,-0.60121 -0.43325,-1.12816 -0.94614,-1.43267 z m -15.80742,14.61554 c -5.62772,0 -10.191435,-4.68839 -10.191435,-10.46969 0,-5.78141 4.563715,-10.46969 10.191435,-10.46969 5.62762,0 10.19133,4.68828 10.19133,10.46969 0,5.7813 -4.56371,10.46969 -10.19133,10.46969 z"
       id="path2"
       style="stroke-width:1.0985;fill:#ffffff;fill-opacity:1" />
  </g>
</svg>
